<svg width="32" height="32" viewBox="0 0 32 32" fill="none" xmlns="http://www.w3.org/2000/svg">
<path d="M15.9989 30.5C7.99106 30.4994 1.5 24.0079 1.5 16C1.5 7.99167 7.99167 1.5 16 1.5C24.0083 1.5 30.5 7.99167 30.5 16C30.5 18.4353 29.8981 20.7363 28.8337 22.7542L29.8246 28.0754C29.9152 28.5615 29.7603 29.061 29.4107 29.4106C29.061 29.7603 28.5615 29.9152 28.0754 29.8246L22.754 28.8337C20.6743 29.93 18.3555 30.5034 15.9989 30.5ZM15.9989 30.5C15.9985 30.5 15.9981 30.5 15.9977 30.5L16 29V30.5C15.9996 30.5 15.9992 30.5 15.9989 30.5Z" stroke="white" stroke-width="3" stroke-linecap="round" stroke-linejoin="round"/>
</svg>
